<svg xmlns="http://www.w3.org/2000/svg" width="800" height="500" viewBox="0 0 800 500">
  <rect width="800" height="500" fill="#0c2461" rx="8" ry="8"/>
  <path d="M 50 400 L 750 400" stroke="#ffffff" stroke-width="2" stroke-opacity="0.2"/>
  <path d="M 50 300 L 750 300" stroke="#ffffff" stroke-width="2" stroke-opacity="0.2"/>
  <path d="M 50 200 L 750 200" stroke="#ffffff" stroke-width="2" stroke-opacity="0.2"/>
  <path d="M 50 100 L 750 100" stroke="#ffffff" stroke-width="2" stroke-opacity="0.2"/>
  
  <!-- Time axis ticks and labels -->
  <path d="M 50 400 L 50 405" stroke="#ffffff" stroke-width="2" stroke-opacity="0.5"/>
  <path d="M 190 400 L 190 405" stroke="#ffffff" stroke-width="2" stroke-opacity="0.5"/>
  <path d="M 330 400 L 330 405" stroke="#ffffff" stroke-width="2" stroke-opacity="0.5"/>
  <path d="M 470 400 L 470 405" stroke="#ffffff" stroke-width="2" stroke-opacity="0.5"/>
  <path d="M 610 400 L 610 405" stroke="#ffffff" stroke-width="2" stroke-opacity="0.5"/>
  <path d="M 750 400 L 750 405" stroke="#ffffff" stroke-width="2" stroke-opacity="0.5"/>
  
  <text x="50" y="430" fill="#ffffff" font-family="Arial" font-size="12" text-anchor="middle">Jan</text>
  <text x="190" y="430" fill="#ffffff" font-family="Arial" font-size="12" text-anchor="middle">Feb</text>
  <text x="330" y="430" fill="#ffffff" font-family="Arial" font-size="12" text-anchor="middle">Mar</text>
  <text x="470" y="430" fill="#ffffff" font-family="Arial" font-size="12" text-anchor="middle">Apr</text>
  <text x="610" y="430" fill="#ffffff" font-family="Arial" font-size="12" text-anchor="middle">May</text>
  <text x="750" y="430" fill="#ffffff" font-family="Arial" font-size="12" text-anchor="middle">Jun</text>
  
  <!-- Price labels -->
  <text x="35" y="405" fill="#ffffff" font-family="Arial" font-size="12" text-anchor="end">0</text>
  <text x="35" y="305" fill="#ffffff" font-family="Arial" font-size="12" text-anchor="end">25k</text>
  <text x="35" y="205" fill="#ffffff" font-family="Arial" font-size="12" text-anchor="end">50k</text>
  <text x="35" y="105" fill="#ffffff" font-family="Arial" font-size="12" text-anchor="end">75k</text>
  
  <!-- Bitcoin line chart -->
  <path d="M 50 350 L 120 320 L 190 340 L 260 300 L 330 280 L 400 200 L 470 220 L 540 180 L 610 150 L 680 120 L 750 150" 
        stroke="#3498db" stroke-width="3" fill="none"/>
  
  <!-- Ethereum line chart -->
  <path d="M 50 380 L 120 360 L 190 370 L 260 340 L 330 320 L 400 300 L 470 280 L 540 260 L 610 230 L 680 250 L 750 240" 
        stroke="#2ecc71" stroke-width="3" fill="none"/>
  
  <!-- Candlestick chart -->
  <!-- Bitcoin candles -->
  <rect x="100" y="320" width="20" height="20" fill="#e74c3c"/>
  <line x1="110" y1="310" x2="110" y2="320" stroke="#e74c3c" stroke-width="2"/>
  <line x1="110" y1="340" x2="110" y2="350" stroke="#e74c3c" stroke-width="2"/>
  
  <rect x="170" y="330" width="20" height="20" fill="#2ecc71"/>
  <line x1="180" y1="320" x2="180" y2="330" stroke="#2ecc71" stroke-width="2"/>
  <line x1="180" y1="350" x2="180" y2="360" stroke="#2ecc71" stroke-width="2"/>
  
  <rect x="240" y="290" width="20" height="20" fill="#2ecc71"/>
  <line x1="250" y1="280" x2="250" y2="290" stroke="#2ecc71" stroke-width="2"/>
  <line x1="250" y1="310" x2="250" y2="320" stroke="#2ecc71" stroke-width="2"/>
  
  <rect x="310" y="270" width="20" height="20" fill="#2ecc71"/>
  <line x1="320" y1="260" x2="320" y2="270" stroke="#2ecc71" stroke-width="2"/>
  <line x1="320" y1="290" x2="320" y2="300" stroke="#2ecc71" stroke-width="2"/>
  
  <rect x="380" y="210" width="20" height="20" fill="#e74c3c"/>
  <line x1="390" y1="200" x2="390" y2="210" stroke="#e74c3c" stroke-width="2"/>
  <line x1="390" y1="230" x2="390" y2="240" stroke="#e74c3c" stroke-width="2"/>
  
  <rect x="450" y="210" width="20" height="20" fill="#2ecc71"/>
  <line x1="460" y1="200" x2="460" y2="210" stroke="#2ecc71" stroke-width="2"/>
  <line x1="460" y1="230" x2="460" y2="240" stroke="#2ecc71" stroke-width="2"/>
  
  <rect x="520" y="170" width="20" height="20" fill="#2ecc71"/>
  <line x1="530" y1="160" x2="530" y2="170" stroke="#2ecc71" stroke-width="2"/>
  <line x1="530" y1="190" x2="530" y2="200" stroke="#2ecc71" stroke-width="2"/>
  
  <rect x="590" y="140" width="20" height="20" fill="#2ecc71"/>
  <line x1="600" y1="130" x2="600" y2="140" stroke="#2ecc71" stroke-width="2"/>
  <line x1="600" y1="160" x2="600" y2="170" stroke="#2ecc71" stroke-width="2"/>
  
  <rect x="660" y="130" width="20" height="20" fill="#e74c3c"/>
  <line x1="670" y1="120" x2="670" y2="130" stroke="#e74c3c" stroke-width="2"/>
  <line x1="670" y1="150" x2="670" y2="160" stroke="#e74c3c" stroke-width="2"/>
  
  <rect x="730" y="140" width="20" height="20" fill="#2ecc71"/>
  <line x1="740" y1="130" x2="740" y2="140" stroke="#2ecc71" stroke-width="2"/>
  <line x1="740" y1="160" x2="740" y2="170" stroke="#2ecc71" stroke-width="2"/>
  
  <!-- Legend -->
  <rect x="580" y="30" width="150" height="50" rx="5" ry="5" fill="#0c2461" stroke="#ffffff" stroke-opacity="0.3"/>
  <line x1="600" y1="45" x2="620" y2="45" stroke="#3498db" stroke-width="3"/>
  <text x="630" y="49" fill="#ffffff" font-family="Arial" font-size="12">Bitcoin (BTC)</text>
  <line x1="600" y1="65" x2="620" y2="65" stroke="#2ecc71" stroke-width="3"/>
  <text x="630" y="69" fill="#ffffff" font-family="Arial" font-size="12">Ethereum (ETH)</text>
</svg> 